<svg width="231" height="48" viewBox="0 0 231 48" fill="none" xmlns="http://www.w3.org/2000/svg">
  <rect x="0.5" width="48" height="48" rx="12" fill="#10B981"/>
  <path d="M14 34V14H20L24 25.6L28 14H34V34H29.6V20.6L25.4 32.6H22.6L18.4 20.6V34H14Z" fill="white"/>
  <path d="M66 34V14H71.9L77.7 27.4L83.5 14H89.4V34H84.8V21.6L79.6 34H75.8L70.6 21.6V34H66Z" fill="white"/>
  <path d="M96.3 34V18.8H100.9V34H96.3ZM98.6 16.6C97.2 16.6 96.1 15.6 96.1 14.3C96.1 13 97.2 12 98.6 12C100 12 101.1 13 101.1 14.3C101.1 15.6 100 16.6 98.6 16.6Z" fill="white"/>
  <path d="M107.1 34V18.8H111.4L111.7 20.8C112.7 19.3 114.4 18.4 116.6 18.4C120.1 18.4 122.3 20.8 122.3 24.8V34H117.7V25.4C117.7 23.4 116.7 22.2 114.9 22.2C112.9 22.2 111.7 23.6 111.7 25.9V34H107.1Z" fill="white"/>
  <path d="M134.5 34.3C130.9 34.3 128.7 32.4 128.7 28.5V22.5H126.3V18.8H128.7L129.3 14.8H133.3V18.8H137.1V22.5H133.3V28.5C133.3 29.8 133.9 30.4 135.3 30.4H137V34C136.3 34.2 135.5 34.3 134.5 34.3Z" fill="white"/>
</svg>
