<svg width="154" height="32" viewBox="0 0 154 32" fill="none" xmlns="http://www.w3.org/2000/svg">
  <rect width="32" height="32" rx="8" fill="#10B981"/>
  <path d="M9 23V9H13.2L16 17.1L18.8 9H23V23H19.9V13.6L17 22H15L12.1 13.6V23H9Z" fill="white"/>
  <path d="M45 23V9H49.1L53.2 18.4L57.3 9H61.4V23H58.2V14.3L54.5 23H51.9L48.2 14.3V23H45Z" fill="#101828"/>
  <path d="M66.1 23V12.4H69.3V23H66.1ZM67.7 10.9C66.7 10.9 66 10.2 66 9.3C66 8.4 66.7 7.7 67.7 7.7C68.7 7.7 69.4 8.4 69.4 9.3C69.4 10.2 68.7 10.9 67.7 10.9Z" fill="#101828"/>
  <path d="M73.3 23V12.4H76.3L76.5 13.8C77.2 12.8 78.3 12.1 79.9 12.1C82.3 12.1 83.9 13.8 83.9 16.6V23H80.7V17C80.7 15.6 80 14.8 78.7 14.8C77.3 14.8 76.5 15.8 76.5 17.4V23H73.3Z" fill="#101828"/>
  <path d="M92.4 23.2C89.9 23.2 88.4 21.9 88.4 19.2V15H86.7V12.4H88.4L88.8 9.6H91.6V12.4H94.3V15H91.6V19.2C91.6 20.1 92 20.5 93 20.5H94.2V23C93.7 23.1 93.1 23.2 92.4 23.2Z" fill="#101828"/>
</svg>
